<svg xmlns="http://www.w3.org/2000/svg" viewBox="0 0 241.78 44.07"><defs><style>.cls-1{fill:#1d1d1b;stroke:#1d1d1b;stroke-miterlimit:10;stroke-width:0.35px;}</style></defs><g id="Layer_2" data-name="Layer 2"><g id="Layer_1-2" data-name="Layer 1"><path class="cls-1" d="M51.91,10.45A3.16,3.16,0,0,0,51.1,10Q48.28,8.84,37,6.22q-1.32,2.16-5.25,8.19c-.84,1.29-1.9,2.81-3.2,4.55,1.67.28,3.28.52,4.82.74q4.88.64,7.13.69c.38,0,.55,0,.5.14s-.39.18-1.06.18A84.32,84.32,0,0,1,28,19.7,45.79,45.79,0,0,1,17.63,30.23l4.63,2.44Q34,38.79,41.65,38.79c3.46,0,6-.95,7.45-2.85.16-.28.31-.4.43-.37s.07.24-.18.64a6.07,6.07,0,0,1-3.16,2.49,13,13,0,0,1-4.79.87,35.92,35.92,0,0,1-13.14-2.9,122.08,122.08,0,0,1-11.69-5.75A20.37,20.37,0,0,1,5.93,34.05a13.08,13.08,0,0,1-3.5-.46c-1.5-.4-2.26-1-2.26-1.75a.19.19,0,0,1,.07-.14l.62.48q1.63,1.23,5.26,1.23a17.77,17.77,0,0,0,9.82-2.78q-2.76-1.53-5.88-3.1A31.62,31.62,0,0,0,4,24.9c-.83-.16-1.25-.08-1.25.23q0,1.29,3.13,3a16.32,16.32,0,0,0,4.75,1.89,12.48,12.48,0,0,1-5.38-1.43Q2.18,27.1,2.18,25.31a.64.64,0,0,1,.37-.64,3.7,3.7,0,0,1,2.63-.32q2.51.58,11.82,5.56,3.77-2.76,9.39-10.49L24,18.83c-.84-.22-1.13-.5-.88-.83s1.41,0,3.84.65c.53-.71,1.59-2.22,3.16-4.52L35.77,6A79.88,79.88,0,0,0,19.72,4Q8.13,4,7.87,9.35c0,.89.61,1.93,2,3.13a15.82,15.82,0,0,0,3.6,2.43,2.07,2.07,0,0,1,.45.37c-.05.13-.32.06-.82-.18Q6.25,11.88,6.24,8.89C6.24,6.8,8,5.32,11.5,4.43a34.78,34.78,0,0,1,8.76-.92q1.74,0,3,.09A118.09,118.09,0,0,1,36.33,5.25c.71-.88,1.55-1.85,2.51-2.89Q41.09,0,41.9.2a.78.78,0,0,1,.38.64c0,.49-.44,1.06-1.32,1.7a21,21,0,0,0-3.5,2.9,52.67,52.67,0,0,1,13.7,4.28C51.87,10.08,52.12,10.33,51.91,10.45Z"/><path class="cls-1" d="M52.1,19.84c.12.15-.13.36-.75.64q-.2.14-6,4.88Q44.59,26,41,28.85a24.37,24.37,0,0,0,1.87,2.07,4.7,4.7,0,0,0,2.57,1.38c1.33.09,2.37-.67,3.13-2.3.16-.21.22-.32.18-.32.17,0,.21.17.13.51A3.21,3.21,0,0,1,45.4,33q-2.68-.09-5.12-3.49a18.14,18.14,0,0,0-3,2.85c-.21.27-.37.38-.5.32s0-.2.19-.51a20.68,20.68,0,0,1,2.88-3.35c-.13-.25-.3-.57-.5-1-.13.09-.32.25-.57.46a30.41,30.41,0,0,0-2.12,3,5.29,5.29,0,0,0-.44,1.33c0,.09,0,.14.06.14a3.19,3.19,0,0,0-.19-.65,4.45,4.45,0,0,1,.19-1A11,11,0,0,1,38.21,28c.42-.48.69-.73.81-.73q.57,0,1.44,1a49.67,49.67,0,0,1,3.94-3.72,47.11,47.11,0,0,1,5.2-3.59,15.85,15.85,0,0,1-5.13.6q-3-.18-2.88-1.2c0-.4.39-.67,1.06-.83a1,1,0,0,1,.57-.13c0,.09-.07.18-.32.27-.41.06-.62.23-.62.51s.75.55,2.25.64a22.41,22.41,0,0,0,5.94-.37,6.68,6.68,0,0,1,.82-.59Q52,19.65,52.1,19.84Z"/><path class="cls-1" d="M65.86,20.34c0,.13-.09.26-.28.42a.59.59,0,0,1-.47.18,1.2,1.2,0,0,0,0-.55c-.12-.22-.58-.32-1.38-.32a11.63,11.63,0,0,0-4.44,1,14.6,14.6,0,0,0-7.38,6.86,7.5,7.5,0,0,0-1.06,2.94c0,.43.16.66.5.69q1.44.14,4.63-2.76a28.17,28.17,0,0,0,3.75-4c.21-.25.71-.92,1.5-2a7.54,7.54,0,0,1,1.5-.83q.57-.22.69-.09a2.78,2.78,0,0,1-.44.37,98,98,0,0,0-6.13,10.9,11.69,11.69,0,0,1,3.51-1.06c.41-.06.62,0,.62,0-.21.09-1,.34-2.25.73a16.07,16.07,0,0,0-2.13.92,68.16,68.16,0,0,1-4.13,5.8,17.85,17.85,0,0,1-2.62,2.58c-1.46,1.16-2.61,1.74-3.44,1.74-.51,0-.67-.35-.51-1q.76-3.41,6-7.09a31.57,31.57,0,0,1,3.19-2q.43-.74,4.19-7.68a29.39,29.39,0,0,1-4,4Q52.47,32.3,51,32.21c-.91-.06-1.37-.63-1.37-1.7,0-2.49,1.52-4.92,4.57-7.31a15.22,15.22,0,0,1,9.57-3.59C65.17,19.61,65.86,19.85,65.86,20.34ZM54.73,34.51a17,17,0,0,0-5.2,3.77,8.61,8.61,0,0,0-2.44,4c-.12.46-.08.73.13.83.5.12,1.31-.36,2.44-1.43a21,21,0,0,0,1.88-2.07A41.55,41.55,0,0,0,54.73,34.51Z"/><path class="cls-1" d="M71.24,20.11a55,55,0,0,0-3.37,5.68Q67,27.4,65.08,31.3a15.62,15.62,0,0,1,3.16-1.71c.29-.09.44-.08.44.05a4.32,4.32,0,0,0-1,.5,10.58,10.58,0,0,0-2.25,1.66,11.52,11.52,0,0,1-2,1.7c-.37,0-.48-.25-.31-.65,1.33-3.15,2.42-5.52,3.25-7.08a30.5,30.5,0,0,1,3.13-5.15,4.08,4.08,0,0,1-.94.27c-.37,0-.56,0-.56-.13a5,5,0,0,1,1.37-.58c.92-.32,1.46-.52,1.63-.6s.29-.08.38,0S71.41,19.84,71.24,20.11Zm5.38-7.77a36.51,36.51,0,0,0-2.81,2.85c-.3.55-.55.83-.75.83a.31.31,0,0,1-.19,0c-.5-.18-.61-.5-.32-1a5.41,5.41,0,0,1,1.76-1.52A9.59,9.59,0,0,1,76.62,12.34Z"/><path class="cls-1" d="M112.84,19.9c0,1.15-1.35,1.73-4.06,1.73a10.6,10.6,0,0,1-2.76-.51,4,4,0,0,1,.63,2,7.25,7.25,0,0,1-1.16,3.31,9.66,9.66,0,0,1-2.53,2.9,20.54,20.54,0,0,1-3.88,2.25,13.75,13.75,0,0,0,2.31,3.55,6.35,6.35,0,0,0,4.76,2.48,3.19,3.19,0,0,0,.94-.14.5.5,0,0,1,.31,0c.13.09,0,.2-.41.32a3.13,3.13,0,0,1-.9.19,7.55,7.55,0,0,1-5.82-2.21,10.56,10.56,0,0,1-2.57-3.64A16.32,16.32,0,0,1,92,33q-6.2,0-6.51-3.68c-.16-2.24,1.17-4.37,4-6.39a35.17,35.17,0,0,1,7.07-3.32c.79-3.09,2.87-5.52,6.25-7.26A11.74,11.74,0,0,1,108.21,11c1.67,0,2.57.56,2.69,1.66.13,1.35-1.64,2.76-5.29,4.23q-.56.24-7.41,2.67a17.77,17.77,0,0,0-.43,6.21,21.26,21.26,0,0,0,1.1,5.2,12.39,12.39,0,0,0,5.73-4.74,6.62,6.62,0,0,0,1.05-3.08A5.48,5.48,0,0,0,105.4,21a19.27,19.27,0,0,1-1.88-1.29q-.31-.46-.06-.6a1.2,1.2,0,0,1,1.16.19,2.71,2.71,0,0,1,.9.82,6.65,6.65,0,0,0,3.32.78c2,0,3.21-.33,3.5-1a.43.43,0,0,0-.19-.44l-.25-.22a.21.21,0,0,1,.19-.13.65.65,0,0,1,.5.31A.89.89,0,0,1,112.84,19.9ZM97.45,31.61a16.88,16.88,0,0,1-1.31-5.33,19.36,19.36,0,0,1,.31-6.12,28.7,28.7,0,0,0-5.5,3Q87,26,87.32,29.41q.32,3.21,4.69,3.21A14.57,14.57,0,0,0,97.45,31.61Zm12.89-18.93c0-.87-.75-1.31-2.13-1.31a9.49,9.49,0,0,0-5,1.59,11.06,11.06,0,0,0-3.5,3.25,13.39,13.39,0,0,0-1.38,2.89A63.15,63.15,0,0,0,105,16.54C108.59,14.86,110.38,13.58,110.34,12.68Z"/><path class="cls-1" d="M166.33,6.5c0,.06-.12.09-.25.09-.58-.09-1.44-.22-2.56-.37q-1.44,7.13-10.26,18.4c-1.26,1.56-2.38,2.92-3.38,4.05q2.37-.69,5.57-1.8a3.7,3.7,0,0,0,.87-.5c.17-.15.29-.22.38-.19s.12.08.12.14q0,.88-7.69,3.13A42,42,0,0,1,134,39.71a29.42,29.42,0,0,1-10.7,2.44q-4.19,0-4.25-1.76Q119,37.72,129.86,34q4.24-1.43,17.77-4.89c1-1,2.33-2.63,4.12-4.93Q160.14,13.37,162.64,6L156,5.07a71.92,71.92,0,0,0-8.76-.51q-6.88,0-10.2,1.12-5.37,1.89-5,7.36.18,2.6,4.31,5.37c.3.21.42.35.38.42s-.19,0-.56-.19a16,16,0,0,1-3.32-2.17,6.2,6.2,0,0,1-2.69-4.84q0-7.71,18.71-7.71a86.35,86.35,0,0,1,13.89,1.66A4.79,4.79,0,0,1,163,3.92c.21,0,.38.21.5.71a2.88,2.88,0,0,1,.13,1.09s.66.13,1.87.41C166.12,6.28,166.41,6.41,166.33,6.5ZM146.94,29.91q-7.51,2-16.58,4.83a54.48,54.48,0,0,0-6,2.35q-4.44,2.07-4.31,3.31c.08.92,1.19,1.38,3.31,1.38a27.37,27.37,0,0,0,10.39-2.53A39.53,39.53,0,0,0,146.94,29.91Z"/><path class="cls-1" d="M171.09,20.62c.12.12-.09.26-.63.41a4.64,4.64,0,0,1-1.19.23,3.89,3.89,0,0,1-1.44-.37,3,3,0,0,1,.25,1.34q0,2.34-2.94,6.35-3.31,4.5-6.25,4c-1-.15-1.51-.88-1.51-2.2a9.34,9.34,0,0,1,2.1-5.41,12.15,12.15,0,0,1,5-4.12,2.07,2.07,0,0,1,.82-.32.3.3,0,0,1,.18.05s-.29.15-.75.55a18,18,0,0,0-5.63,7.55,6.56,6.56,0,0,0-.5,2.16c0,.82.36,1.24,1.07,1.24q1.94,0,4.44-3.36c2.17-2.88,3.25-5.14,3.25-6.76a2.06,2.06,0,0,0-.87-1.66,8,8,0,0,1-1.19-1.05c-.09-.31.06-.51.43-.6a.75.75,0,0,1,.94.41,13.51,13.51,0,0,0,1.13,1.1,2.55,2.55,0,0,0,1.5.6,3,3,0,0,0,1.19,0C170.92,20.7,171.13,20.65,171.09,20.62Z"/><path class="cls-1" d="M185.6,8.34s0,.1-.25.23Q181,10.45,174.5,21q-1,1.56-3.63,6.39a49,49,0,0,1,8.72-7.08c.63-.37,1.09-.49,1.38-.37s.37.46.12.92L178,26.37A41.09,41.09,0,0,0,175.34,32c-.09.4,0,.63.12.69s.75-.15,1.5-.74c.3-.24.48-.33.57-.27s.12.08.12.14-.1.15-.31.27c-1.13,1-2,1.49-2.56,1.43s-1-.55-.76-1.47a23.18,23.18,0,0,1,2.46-5.56l2.43-4.38c.21-.4.27-.61.18-.64s-.39.06-.81.36q-2.57,1.89-4.82,3.87a43.16,43.16,0,0,0-4.94,5.61c-.21.18-.54.51-1,1-.17.21-.31.3-.44.27s-.17-.2,0-.5q.55-1,3.29-6.27a71.93,71.93,0,0,1,4-6.8q4.93-7.55,9.33-10C184.7,8.35,185.35,8.15,185.6,8.34Z"/><path class="cls-1" d="M194.73,20.43q-.87,1.66-3.44,6.4a43,43,0,0,1-3.13,5.24q3.14-2.94,5.32-3.4c.25-.09.4-.11.44-.05s0,.19-.31.28A9.5,9.5,0,0,0,191,30.37a39.17,39.17,0,0,0-3.43,2.81,1.21,1.21,0,0,1-1.06.5c-.25,0-.27-.21-.07-.55Q188,30.7,191,24.8a35.72,35.72,0,0,1-4.19,4.37q-3.56,3.22-5.37,3c-.84-.09-1.25-.6-1.25-1.53a7.89,7.89,0,0,1,1.87-4.59A19.13,19.13,0,0,1,186,22.2c2.13-1.54,3.92-2.32,5.39-2.32A1.55,1.55,0,0,1,193,20.94c.5-.77,1-1.12,1.5-1.06C194.83,19.91,194.9,20.1,194.73,20.43Zm-2.38,1.3a1,1,0,0,0,.13-.51c0-.58-.42-.88-1.25-.88q-2.44,0-5.32,3a20.64,20.64,0,0,0-3.38,4.59,7.08,7.08,0,0,0-1.06,2.83c0,.41.16.62.5.65q1.56.14,4.63-2.64A26,26,0,0,0,192.35,21.73Z"/><path class="cls-1" d="M207.87,20.89c-.59,1-1.63,2.84-3.13,5.48A42.32,42.32,0,0,0,202.11,32c-.08.4,0,.63.13.69s.75-.15,1.5-.74c.29-.24.48-.33.56-.27a.12.12,0,0,1,.06.09c0,.09-.1.2-.31.32-1,1-1.81,1.49-2.44,1.43s-1-.55-.75-1.47a19.76,19.76,0,0,1,2.4-5.56l2.5-4.37c.15-.31.17-.5,0-.56s-.41,0-.75.27c-1.62,1.2-3.21,2.49-4.75,3.87a56.66,56.66,0,0,0-4.94,5.61c-.21.18-.54.51-1,1-.17.21-.32.3-.44.27s-.17-.2,0-.5c.54-1,1.63-3.07,3.29-6.27L200,20.48c.12-.28,0-.41-.25-.41a2.32,2.32,0,0,0-1.32.55.59.59,0,0,1-.31.14s-.08,0-.13-.1.05-.18.25-.27a10.76,10.76,0,0,1,2.69-1.24c.38,0,.63,0,.75.23a.47.47,0,0,1,.05.61c-1.35,2.48-2.67,5-4,7.44a56.31,56.31,0,0,1,8.63-7.09c.62-.37,1.08-.49,1.37-.37S208.12,20.43,207.87,20.89Z"/><path class="cls-1" d="M220.38,20.89c-.58,1-1.63,2.84-3.13,5.48A42.32,42.32,0,0,0,214.62,32c-.08.4,0,.63.13.69s.75-.15,1.5-.74c.29-.24.48-.33.56-.27s.07.06.07.09-.11.2-.32.32c-1,1-1.81,1.49-2.44,1.43s-1-.55-.75-1.47a19.76,19.76,0,0,1,2.4-5.56l2.5-4.37c.15-.31.17-.5,0-.56s-.42,0-.75.27q-2.44,1.8-4.76,3.87a58.06,58.06,0,0,0-4.94,5.61c-.21.18-.54.51-1,1-.17.21-.32.3-.44.27s-.17-.2,0-.5c.54-1,1.63-3.07,3.29-6.27l2.78-5.28c.12-.28,0-.41-.25-.41a2.32,2.32,0,0,0-1.32.55.59.59,0,0,1-.31.14s-.08,0-.12-.1,0-.18.25-.27a10.42,10.42,0,0,1,2.69-1.24c.37,0,.62,0,.75.23a.49.49,0,0,1,0,.61q-2,3.72-4,7.44a56.31,56.31,0,0,1,8.63-7.09c.62-.37,1.08-.49,1.37-.37S220.63,20.43,220.38,20.89Z"/><path class="cls-1" d="M232.83,20.16c0,.55-.4,1.1-1.19,1.65a6.11,6.11,0,0,1-4.19,1.11,5.93,5.93,0,0,1-1.82-.37,20.52,20.52,0,0,0-1.75,2.07c-2,2.94-3,5.11-3,6.49a1.05,1.05,0,0,0,1.19,1.19q2.25,0,4.82-3.31a6.67,6.67,0,0,0,1.18-2.39c.34-.34.46-.52.38-.55.17,0,.23.17.19.5a5.61,5.61,0,0,1-1.44,3,11.62,11.62,0,0,1-3,2.53,5.14,5.14,0,0,1-3,.83,1.85,1.85,0,0,1-1.75-2.12c0-2,1.23-4.42,3.69-7.08q4-4.38,8.45-4.33C232.41,19.42,232.83,19.67,232.83,20.16Zm-1.63.23c0-.31-.25-.46-.74-.46-1.44,0-2.93.78-4.45,2.34a10.51,10.51,0,0,0,1.61.28,4.57,4.57,0,0,0,2.41-.64C230.85,21.45,231.24,20.94,231.2,20.39Z"/><path class="cls-1" d="M241.59,20.16c.12.7-.55,1.41-2,2.11a3.17,3.17,0,0,0,.81-1.79.55.55,0,0,0-.5-.6,2,2,0,0,0-2.38,1.29,34,34,0,0,0-.62,5.15A7.87,7.87,0,0,1,235,31a6.47,6.47,0,0,1-5.45,2.34c-1.16-.06-1.75-.55-1.75-1.47q0-2.11,3.13-3.49c1.17-.52,1.83-.69,2-.51a1.19,1.19,0,0,1-.5.23c-1.83.86-2.92,1.9-3.25,3.13a2.68,2.68,0,0,0-.13.64c0,.65.38,1,1.13,1.06,1.67.15,3-.67,3.94-2.48a10.84,10.84,0,0,0,1.13-3.73c.2-2.05.35-3.26.43-3.63a4.19,4.19,0,0,1,4.51-3.59Q241.46,19.47,241.59,20.16Z"/></g></g></svg>