<svg xmlns="http://www.w3.org/2000/svg" viewBox="0 0 48.56 25.29"><defs><style>.cls-1{fill:#cf9ca6;}.cls-2{fill:#ecdbdc;}.cls-3{fill:#c38395;}.cls-4{fill:#ceb6b7;}.cls-5{fill:#d3a4ae;}.cls-6{fill:#ebdadc;}.cls-7{fill:#766663;}.cls-8{fill:#debec4;}.cls-9{fill:#e9d7da;}.cls-10{fill:#ebd9df;}.cls-11{fill:#d7b4ba;}.cls-12{fill:#d6adb8;}.cls-13{fill:#e0c4cc;}.cls-14{fill:#e7d0d0;}.cls-15{fill:#9a7c7b;}.cls-16{fill:#ce8ea2;}.cls-17{fill:#ad9187;}.cls-18{fill:#d6acb4;}.cls-19{fill:#ca919e;}.cls-20{fill:#ae667e;}.cls-21{fill:#c37c90;}.cls-22{fill:#ae8581;}.cls-23{fill:#d7a4b2;}.cls-24{fill:#ebdfe0;}.cls-25{fill:#a28a82;}.cls-26{fill:#ceb7c1;}.cls-27{fill:#c5ac9b;}.cls-28{fill:#caa298;}.cls-29{fill:#b88087;}.cls-30{fill:#dab6b6;}.cls-31{fill:#cf9f91;}.cls-32{fill:#e8d1da;}.cls-33{fill:#9d6c75;}.cls-34{fill:#ca979d;}.cls-35{fill:#9b5666;}.cls-36{fill:#deb6bf;}.cls-37{fill:#eddfe3;}</style></defs><g id="Layer_2" data-name="Layer 2"><g id="Layer_1-2" data-name="Layer 1"><path class="cls-1" d="M2.53,17.51c.55-.66,1.4-1,1.87-1.73a3.92,3.92,0,0,1,2.68-1c.48.34.9.09,1.36-.09s1-.54,1.09.34c-.26.87-1.12,1.32-1.42,2.15a9.7,9.7,0,0,0-2.72,5,1.83,1.83,0,0,1-.52.91c-.35.32-.76.58-1.21.32s-.37-.77-.31-1.23A22.77,22.77,0,0,1,3.94,19c.24-.89-.28-.86-.81-.95A1.35,1.35,0,0,1,2.53,17.51Z"/><path class="cls-2" d="M2.22,10.68,2,10.5C1.34,9.71.32,9.21.7,7.84s1.67-2,2.79-2.52c1-.42,1.64.53,2.11,1.33.3.5.88.69,1.16,1.19a.83.83,0,0,1,.06.44.56.56,0,0,1-.34.26A2.69,2.69,0,0,1,5,7.91a6,6,0,0,0,1.3.69c.4.19.94.44.63,1s-.72.15-1.08-.05a1.91,1.91,0,0,1-.46-.39A4.13,4.13,0,0,0,4.12,8.6s-.07-.07,0-.06,0,.06,0,.07a.66.66,0,0,1,.25,0c.68.18,1.06.55.92,1.29a.46.46,0,0,1-.11.36,1.77,1.77,0,0,1-1.36.26A2.05,2.05,0,0,0,2.22,10.68Z"/><path class="cls-3" d="M9,25a1.94,1.94,0,0,1-.78-1.6c.35-1.82,1.78-3.13,2.29-4.88a6.68,6.68,0,0,0,.21-1.17,5.56,5.56,0,0,0-.49-3.54,1.45,1.45,0,0,1,.6-1.18,1.16,1.16,0,0,1,.4-.16,1.07,1.07,0,0,1,.4.1c.34.22.67.61,1.09.12a2,2,0,0,1,1-.71c.91.73-.05,1.57.16,2.35a1,1,0,0,0-.36,1.13,2,2,0,0,1,0,.42,3,3,0,0,1-.16.83,12.67,12.67,0,0,0-1.82,4.24C10.49,22,9.35,23,9.3,24.67A.81.81,0,0,1,9,25Z"/><path class="cls-4" d="M7.1,14.94a9.52,9.52,0,0,1-2.7.84c0-.15.24-.49-.15-.36-.6.19-1.11.67-1.83.56,1.12-.65,1.79-2,3.34-2a2,2,0,0,0,1.43-.44c.38-.37,0-.48-.29-.55a2.88,2.88,0,0,0-.4.09,7,7,0,0,0-4.34,1.57q-.24.09-.24-.18c.33-.72,1.26-.81,1.64-1.48-.3-.32-.64-.11-.91-.22,0-.11,0-.18.06-.22s.1-.06.13,0a3.23,3.23,0,0,1,1.7-.34c.64-.65,1.59-.14,2.26-.65a3.85,3.85,0,0,1,.3-.27,1.32,1.32,0,0,1,.39-.15c.82,0,1.59.14,1.75,1.16.14.66.33,1.35-.63,1.56-.35,0-.24.15-.13.32A1,1,0,0,1,7.1,14.94Z"/><path class="cls-5" d="M3,3.84a3,3,0,0,1,3,.08,8,8,0,0,1,3.42,3,1.18,1.18,0,0,1,.69.11c.52.49,1,1,.75,1.8a1.1,1.1,0,0,1-1.46-.08C9,8.49,9,8.94,8.84,9A2.47,2.47,0,0,1,7.52,9a1.13,1.13,0,0,1-.76-.86h0c-.63-.62-.62-.62-.23-1.3,0,0-.14-.24-.18-.38,0-.35-.14-.29-.35-.17-.77-.9-1.55-1.78-2.93-1.56-.23,0-.46-.19-.5-.48A.69.69,0,0,1,3,3.84Z"/><path class="cls-6" d="M4.41,23.08A2.35,2.35,0,0,0,4.92,22a8,8,0,0,1,2.82-5.15A.56.56,0,0,0,8,16.69c.27-.35.57-.84,1.06-.51s-.25.68-.12,1.07a32.57,32.57,0,0,1-2.4,5.32,1.15,1.15,0,0,1-.76.68C4.66,24,4.47,23.94,4.41,23.08Z"/><path class="cls-7" d="M13.7,14.45c-.69-.86,0-1.64.14-2.45a.7.7,0,0,1-.07-.47,1.19,1.19,0,0,1,1.28-.91v0c.23-.07.34-.34.61-.34h0a1,1,0,0,1,.45-.1h0a2.18,2.18,0,0,1,.44-.11h0a1.52,1.52,0,0,1,.47,0l.09.07.1.06c.07.09.07.16,0,.2s-.1.07-.12,0a.45.45,0,0,0-.19.17,1.1,1.1,0,0,1-.42.17.33.33,0,0,0-.17.16c-.12.09-.25.17-.19.35l.73.49a.49.49,0,0,0,.56.35h0c.36-.11.58.35.94.24l.31.11.43,0,.5.22a1.08,1.08,0,0,1,.44,0l1.17.29a.69.69,0,0,1,.36.13.39.39,0,0,1,0,.53,1.85,1.85,0,0,1-1,.13h0c-.23.09-.43-.12-.65-.06h0c-.24.06-.43-.13-.66-.09h0c-.27.08-.48-.11-.72-.13a.33.33,0,0,0-.23-.09c-.23.06-.43-.14-.66-.1h0a1.58,1.58,0,0,1-.42.09h0a.68.68,0,0,1-.4,0,10.6,10.6,0,0,0-1.56-.34c-.14,0-.44-.13-.4.17s.27.26.38.43a3,3,0,0,1,.13.39l.56.3h.4l.12.08.12.05c.18,0,.28.13.21.29s-.3.23-.5.24a1.34,1.34,0,0,0-.92.18,1,1,0,0,1-.45,0L14.41,15A1.15,1.15,0,0,1,14,15,.53.53,0,0,1,13.7,14.45Z"/><path class="cls-8" d="M6.32,6.06,7.49,7.62c-.54.19-.77-.39-1.2-.35,0,.38.52.5.47.9-.67-.6-1.67-.76-1.94-1.91-.15-.66-1.06-.63-1.77-.13a11.87,11.87,0,0,1-1.29.77c-.44.23-.58.39-.52,1A4.23,4.23,0,0,0,2,10.5C.74,9.73-.33,8.86.1,7.17A8.48,8.48,0,0,1,2.65,4.39,4.3,4.3,0,0,0,4,4.39c1.25-.22,1.39-.1,1.77,1.15.1.3.12.61.56.52Z"/><path class="cls-9" d="M2.53,17.51l.65.07a1.14,1.14,0,0,1,0,.55c0,.29.19.47.37.67a1.69,1.69,0,0,1,.34,1.7,28.42,28.42,0,0,0-.79,3.05,1.07,1.07,0,0,1-1.07.91C1.39,23,1.44,21.32.77,19.84c-.29-.65.27-1.24.76-1.68C1.83,17.9,2.28,17.86,2.53,17.51Z"/><path class="cls-10" d="M14.18,14.84l.13.06.1.09A14.13,14.13,0,0,0,13,19.91c.17.5-.26.91-.18,1.4A1.91,1.91,0,0,0,12.13,23v0c-.47.43-.94.87-1.42,1.29a.42.42,0,0,1-.72-.14c-.3-.66.12-1.14.4-1.65.13-.22.29-.42.42-.63l.12-.32a3,3,0,0,1,.23-.44.61.61,0,0,1,.07-.14c-.21-1.89.94-3.24,1.89-4.65,0-.23.17-.42.14-.66h0A.87.87,0,0,1,14.18,14.84Z"/><path class="cls-11" d="M8.92,17.25a1.25,1.25,0,0,1,0-.42c.12-.62-.15-.55-.53-.33l-.61.35C8.1,16,9,15.51,9.49,14.69l.1-.14a2.3,2.3,0,0,1,.35-.42.73.73,0,0,1,.35-.15,1.19,1.19,0,0,1,.35.19c.51,1,.3,2,.49,3A2.47,2.47,0,0,1,10.82,19a22,22,0,0,1-2.59,4.39,4.32,4.32,0,0,1,.93-3.11,5.5,5.5,0,0,0,1-3.85c0-.28,0-.62-.39-.85C9.32,16,9.39,16.79,8.92,17.25Z"/><path class="cls-12" d="M2.89,18.05l.29-.47c.59.76.92-.37,1.52-.17-.33,1.67-.62,3.36-1,5-.18.78.18.75.71.64,0,.4.29.48.64.38l.71-.21a4.66,4.66,0,0,1-1.55,1.66c-.89.61-1.35.5-2.15-.45.31-.5.78-.87.8-1.58a4.21,4.21,0,0,1,.59-1.71,1.61,1.61,0,0,0-.37-2.27C3,18.61,2.86,18.35,2.89,18.05Z"/><path class="cls-13" d="M15.05,10.62l-1.12,1.09A1.55,1.55,0,0,1,12.39,10c0-1-.74-2.32.92-2.84.08,0,0-.28.09-.43.2-.51.72-.64,1.11-.92a.72.72,0,0,1,.41,0c.52,1.14.08,2.31.13,3.47C15.07,9.71,14.87,10.16,15.05,10.62Z"/><path class="cls-14" d="M7.07,11.65c.29.31.44.62-.19.63s-1.56,0-2.34-.08c0-.4-.32-.59-.61-.78,0-.13-.07-.25-.11-.37l-.29-.18c-.49-.59.1-.46.37-.54.38-.3.87-.1,1.28-.27h0C5,9.9,4.94,9.9,4.89,9.34A.33.33,0,0,0,4.67,9c-.37-.16-.75-.29-1.13-.43l.1-.17c.64-.24,1.13.3,1.72.33.35.69,1.48.63,1.53,1.6-.12.42.37.65.34,1l-.16.25Z"/><path class="cls-15" d="M48.5,11.51a11.23,11.23,0,0,1-3.43,1.12A37.9,37.9,0,0,1,39,13.72c-.39,0-.64-.12-.34-.56v-.05L39,13h0l.42-.06.42-.09a1.65,1.65,0,0,1,.43-.09A3,3,0,0,0,42,12.43a1.67,1.67,0,0,1,.44-.11h0a1.41,1.41,0,0,1,.45-.07,13.7,13.7,0,0,0,3.36-.72l.42-.13h0a1.8,1.8,0,0,0,.4-.1h0a1.24,1.24,0,0,0,.38-.09l.62-.3a.36.36,0,0,1,.36.05A.57.57,0,0,1,48.5,11.51Z"/><path class="cls-16" d="M14.73.94c-.1.17-.2.34-.31.51-.35,1-1.28,1.59-2,2.35a1,1,0,0,1-.33.25,1.87,1.87,0,0,0-1.42.64.6.6,0,0,1-.39.1c-.44-.12-.43-.48-.44-.83a3.82,3.82,0,0,1,2.07-2.65c.25,0,.36-.32.61-.36h0C13.27.91,14,.1,14.73.94Z"/><path class="cls-17" d="M38.64,13.16a.7.7,0,0,0,.34.56,10.21,10.21,0,0,1-3.84.53c-1.4.06-2.8.06-4.21.09-.57-.06-1.16.29-1.71-.1a.83.83,0,0,1-.26-.35.28.28,0,0,1,.24-.31h0a2.36,2.36,0,0,1,.45-.08,2,2,0,0,0,.25.14l.41-.08h0a2.24,2.24,0,0,1,.44-.07l.26.13.41-.08h0l.44-.07.26.13a1.8,1.8,0,0,0,.39-.08h0l.42-.08h0a1.78,1.78,0,0,1,.45-.08,1.19,1.19,0,0,0,.25.13l.42-.06,1.11,0,.41-.08h0l.43-.08h0a3.29,3.29,0,0,1,.43-.09h0a1.31,1.31,0,0,1,.44-.07.68.68,0,0,0,.66.05l.43-.09Z"/><path class="cls-18" d="M17.23,2.17a.28.28,0,0,1,.15,0c1.36.06,2.05.59,2,1.52s-.85,1.5-2.2,1.38C17.26,4.08,16.13,3.1,17.23,2.17Z"/><path class="cls-19" d="M17.23,2.17a1,1,0,0,0,0,1.12c.53.62.19,1.17,0,1.74L17,4.89c-.17-.1-.3.07-.44.08V5a.57.57,0,0,1-.4-.09,4.28,4.28,0,0,0-1-.57c-1.18-.29-.91-.9-.38-1.58A6.12,6.12,0,0,1,17.23,2.17Z"/><path class="cls-20" d="M11.07,22.28,10,24.14l-.35.54-.1.06a.5.5,0,0,1-.24,0l-.11-.05c-.4-1.55-.3-2.36,2-3.76h0c.11.23-.12.45,0,.67h0C11.24,21.86,11.07,22.05,11.07,22.28Z"/><path class="cls-21" d="M14.7,2.75c.17.34-.62,1.25.66,1,.46-.11.59.73.9,1.11a.19.19,0,0,1-.19.23.67.67,0,0,0-.57.34l-.38.12-.2.27a1.62,1.62,0,0,0-.18.19l-.21,0-.2-.09a2.93,2.93,0,0,1-.75-1.06,2.13,2.13,0,0,1-.13-.43,1.71,1.71,0,0,1,0-.45c.1-.52.17-1.06.85-1.17Z"/><path class="cls-22" d="M15.15,13.91c-.37-.33-.94-.34-1.25-.78,1.23-.9,1.39-.89,3.07.19a.2.2,0,0,1-.19.24h0l-.42.08h0a2.26,2.26,0,0,1-.44.08l-.41.08A.88.88,0,0,1,15.15,13.91Z"/><path class="cls-23" d="M14.27,2.83c-.39.4-.33,1-.55,1.42a3.61,3.61,0,0,1-1.49-.57c-.06-.21-.09-.49.09-.57.85-.36,1.33-1.2,2.1-1.66C14.55,1.93,14.25,2.36,14.27,2.83Z"/><path class="cls-24" d="M2.65,4.39A8,8,0,0,1,.1,7.17v0c0-.13,0-.27,0-.4l.66-1c.44-.16.45-.73.88-.89A2.22,2.22,0,0,1,3,3.84Z"/><path class="cls-25" d="M23.84,13.4l.69.06c.14,0,.29,0,.43-.06a1.58,1.58,0,0,0,.26.13l.4-.07h0a2.12,2.12,0,0,1,.44,0l.24.13a2.22,2.22,0,0,1,.44-.06,2.18,2.18,0,0,0,.27.11,2.63,2.63,0,0,0,.39-.06h0a.41.41,0,0,1,.5.3c-.37.93-1.15.15-1.68.39h0A10.71,10.71,0,0,1,23.9,14a.53.53,0,0,1-.3-.29A.27.27,0,0,1,23.84,13.4Z"/><path class="cls-26" d="M14.73.94c-.73-.25-1.46.3-2.19,0,.41-.6,1.16-.5,1.7-.83.21-.12.49-.23.68,0S14.87.69,14.73.94Z"/><path class="cls-13" d="M9.91,7.27l-.52-.34c.33-.49,0-1.11.31-1.6.43,0,.32-.64.77-.61h0A.48.48,0,0,1,11,5a1.1,1.1,0,0,1,0,.67,1.38,1.38,0,0,1-.18.41C10.52,6.47,10.42,7,9.91,7.27Z"/><path class="cls-4" d="M3.9,10.33c-.19.14-.47.21-.37.54a1.76,1.76,0,0,1-1.31-.19C2.91,9.8,2.91,9.8,3.9,10.33Z"/><path class="cls-27" d="M23.68,13.7c.81.33,1.74.1,2.55.51A5.22,5.22,0,0,1,23.08,14C23.15,13.64,23.39,13.62,23.68,13.7Z"/><path class="cls-25" d="M23.68,13.7l-.6.29h0c-.24.07-.45-.13-.68-.07h0L22,14h0a.39.39,0,0,1-.51-.31c0-.16-.06-.32-.1-.49a.17.17,0,0,1,.18-.19l.28.13.4-.06.28.13.4,0,.56.26.14,0,.05.13Z"/><path class="cls-28" d="M2.4,12.64c-.35.51-1.08.49-1.43,1a.27.27,0,0,1-.48,0c-.2-.28,0-.44.22-.55a3.14,3.14,0,0,1,1.69-.46Z"/><path class="cls-27" d="M26.23,14.21c.51-.38,1.2.06,1.7-.37l.18-.05a.88.88,0,0,1,.35.1.7.7,0,0,1,.28.46.28.28,0,0,1-.21.26h0c-.36,0-.73,0-1.1,0Z"/><path class="cls-23" d="M10.47,4.72a5.49,5.49,0,0,0-.2.57c-.15.56-.36.29-.57,0A1.73,1.73,0,0,1,9.87,4Z"/><path class="cls-27" d="M21.47,13.69,22,14a1.67,1.67,0,0,1-1.38-.16A1.32,1.32,0,0,1,21.47,13.69Z"/><path class="cls-17" d="M28.69,14.35,28.18,14a.35.35,0,0,1,0-.34.52.52,0,0,1,.31-.16,1.26,1.26,0,0,0,.26.13.19.19,0,0,1,.24.18h0a.39.39,0,0,1-.16.47Z"/><path class="cls-8" d="M1.6,4.82c-.22.36-.39.78-.88.89C.94,5.34,1.11,4.92,1.6,4.82Z"/><path class="cls-27" d="M22.4,13.92a.67.67,0,0,1,.68.07A.67.67,0,0,1,22.4,13.92Z"/><path class="cls-26" d="M12.55,1a.76.76,0,0,1-.61.36A.76.76,0,0,1,12.55,1Z"/><path class="cls-18" d="M16.51,5c.13-.1.22-.45.44-.08Z"/><path class="cls-8" d="M.06,6.74c0,.13,0,.27,0,.4C.09,7,.07,6.87.06,6.74Z"/><path class="cls-28" d="M2.84,12.54l-.19.26-.25-.16h0Z"/><path class="cls-4" d="M3.82,11.05c0,.12.07.24.11.37C3.89,11.29,3.86,11.17,3.82,11.05Z"/><path class="cls-27" d="M22,14l.43-.08Z"/><path class="cls-29" d="M10.24,14.07l-.11.29c-.08.36-.4.27-.64.33h0a6.14,6.14,0,0,0-1.73.83c-.62.27-.68-.11-.66-.58.37-.36,1.22-.25,1.1-1.1h0a2,2,0,0,1,.46-.37c.51-.21.53-.39.05-.66,0,0,0-.27.08-.41.31-.12.56-.39.34-.67-.79-.94-.54-1.91-.21-2.91.09-.19-.37-.79.37-.48l1.34.54a1.2,1.2,0,0,1,.45,2C10.05,11.73,10.63,13,10.24,14.07Z"/><path class="cls-30" d="M6.63,10.62A1.12,1.12,0,0,0,6,9.51c-.28-.19-.62-.35-.67-.75a4.07,4.07,0,0,0,1.29.62C5.83,8.29,4.52,8,3.58,7.25c1.14,0,1.91,1.05,3,1.14a.37.37,0,0,1,.4.2,3.3,3.3,0,0,1,1.48,2.79C7.79,11.2,7.08,11.29,6.63,10.62Z"/><path class="cls-8" d="M6.87,8.62l-.28-.23.17-.22,1.06.66c.35.06.79.12.63.58s-.51.19-.73,0S7.06,9,6.87,8.62Z"/><path class="cls-31" d="M3.64,8.43a1,1,0,0,0-.1.17h0a3.34,3.34,0,0,1-.43.1c-.09-.14-.1-.29,0-.38S3.49,8.31,3.64,8.43Z"/><path class="cls-14" d="M3.11,8.71l.43-.1Z"/><path class="cls-32" d="M11,10.84a3.21,3.21,0,0,0-.34-1.95c0-.64-.51-1.07-.73-1.62a2.53,2.53,0,0,1,.57-1.44c.93.12.6,1,.94,1.54.55-.31.67-1,1.3-1.25a.83.83,0,0,1,.44.06.73.73,0,0,1,.39.53,2.69,2.69,0,0,1,.32,1.6c-.57.07-.5-.59-1-.72-.63,1.11.17,2.22.05,3.31,0,.26.34.27.61.26s.24.37.36.55a1.61,1.61,0,0,1-.09.29L13,13.24c-.59.11-1.13.08-1.44-.54h0c0-.21-.24-.28-.4-.39A1.12,1.12,0,0,1,11,10.84Z"/><path class="cls-33" d="M11,10.84c.12.48.24,1,.35,1.46.08.09.09.16,0,.2s-.11.05-.14,0l-.81,1.31c.06.11.05.19,0,.23s-.11.06-.14,0l0,0c-.36-.06-.68-.1-.48-.65a2.94,2.94,0,0,0,0-2.79C10.3,10.19,10.59,10.76,11,10.84Z"/><path class="cls-1" d="M10.26,14.11c.06-.09.11-.18.16-.27,1.18.92.89,2.16.71,3.37a4.63,4.63,0,0,1-.44-2A1.14,1.14,0,0,0,10.26,14.11Z"/><path class="cls-1" d="M14.18,14.84a2.69,2.69,0,0,1-.92.82,2.14,2.14,0,0,1-.23-.82c-.16-.83.23-.63.67-.39Z"/><path class="cls-1" d="M11.51,12.7a3.55,3.55,0,0,0,1.44.54C12.18,13.68,12,13.62,11.51,12.7Z"/><path class="cls-1" d="M13.26,15.65a.62.62,0,0,1-.14.66A.74.74,0,0,1,13.26,15.65Z"/><path class="cls-1" d="M11.23,12.53c0-.08.07-.15.1-.23l.18.4Z"/><path class="cls-34" d="M6.87,8.62c.3.19.6.39.91.56.1.06.33.36.36,0,0-.09-.21-.2-.32-.3a1,1,0,0,1,1.1,0c.28.44.71.86.06,1.36-.3.24,0,.45.16.61a1.55,1.55,0,0,1,.37,1c.12.61-.29.64-.72.65.09-.24.11-.46-.19-.58a3.72,3.72,0,0,0-1.37-.43c-.17-.29-.81-.19-.6-.78l1.57.53C8,10.12,7.2,9.49,6.87,8.62Z"/><path class="cls-29" d="M8.2,13.84l-.09.05.09,0Z"/><path class="cls-35" d="M6.32,6.06a1.3,1.3,0,0,1,0-.21s.06.05.06.08a.3.3,0,0,1,0,.13Z"/><path class="cls-1" d="M2.89,18.05a.6.6,0,0,1,.19.85C2.76,18.68,2.4,18.46,2.89,18.05Z"/><path class="cls-27" d="M29.21,14.68l-.51-.33.33-.51,1.9.5-.62.32A1,1,0,0,0,29.21,14.68Z"/><path class="cls-3" d="M11.21,21.63a.65.65,0,0,1,0-.67A.57.57,0,0,1,11.21,21.63Z"/><path class="cls-3" d="M11.07,22.28a.67.67,0,0,1,.14-.65A.56.56,0,0,1,11.07,22.28Z"/><path class="cls-1" d="M9.49,14.69l.64-.33C10.16,15,9.83,14.83,9.49,14.69Z"/><path class="cls-36" d="M13.55,6.71l-.5-.33c-.37-.75-.38-1.38.54-1.73h.21a1.88,1.88,0,0,1,.68,1.21h0c.09,0,.17.09.26.12C14.53,6.53,14,6.62,13.55,6.71Z"/><path class="cls-2" d="M5.18,10.06A.86.86,0,0,1,5.45,10c.14,0,.34.06.29.21s-.21,0-.32,0a1.94,1.94,0,0,1-.24-.15Z"/><path class="cls-4" d="M7.07,11.65l-.1,0,.1,0Z"/><path class="cls-36" d="M12.23,3.68c.78-.51.78-.51,1.49.57h0a.67.67,0,0,1-.11.38,2.9,2.9,0,0,1-1.1.54,1.09,1.09,0,0,1-.4-.16,1.13,1.13,0,0,1-.27-.34c-.07-.29-.1-.58.23-.75Z"/><path class="cls-23" d="M12.07,3.93c0,.23-.05.45-.08.68a.94.94,0,0,1-.82.48L11,5l-.51-.32a1.51,1.51,0,0,1,.1-.42C11.1,3.35,11.13,3.21,12.07,3.93Z"/><path class="cls-3" d="M9.61,24.62c0,.09-.11.18-.17.27l-.25-.17Z"/><path class="cls-23" d="M13.52,4.51l.2-.25c0,.13,0,.26.08.39l-.05.06C13.59,4.75,13.51,4.68,13.52,4.51Z"/><path class="cls-37" d="M12.26,4.8l.22.16c.11.42.46.78.3,1.26-.37.53-.39,1.28-1,1.65-.2.12-.31.47-.62.27s-.56-.43-.45-.73a1.55,1.55,0,0,0-.2-1.58l.17-.26c.27-.05.35-.33.55-.46A2.77,2.77,0,0,1,12.26,4.8Z"/><path class="cls-32" d="M11.24,5.23a.75.75,0,0,1-.59.34L11,5h0A.21.21,0,0,1,11.24,5.23Z"/><path class="cls-25" d="M28.09,13.59l.26.17-.17.26-.26-.17A2.33,2.33,0,0,0,28.09,13.59Z"/><path class="cls-13" d="M12.78,6.22c-.23-.39-.54-.76-.3-1.26s.67-.35,1-.45l.23.2a2.62,2.62,0,0,0-.7,1.67Z"/><path class="cls-13" d="M14.48,5.86l-.1,0,.1,0Z"/><path class="cls-13" d="M11.24,5.23,11,5a1,1,0,0,1,1-.43l.27.19A1,1,0,0,1,11.24,5.23Z"/></g></g></svg>